<svg xmlns="http://www.w3.org/2000/svg" viewBox="0 0 469 469">
    <g>
        <path d="M455.5 0h-442C6 0 0 6 0 13.5v211.9c0 7.5 6 13.5 13.5 13.5s13.5-6 13.5-13.5V27h415v415H242.4c-7.5 0-13.5 6-13.5 13.5s6 13.5 13.5 13.5h213.1c7.5 0 13.5-6 13.5-13.5v-442C469 6 463 0 455.5 0z"/>
        <path d="M13.514 468.986h162.1c7.5 0 13.5-6 13.5-13.5v-162.1c0-7.5-6-13.5-13.5-13.5h-162.1c-7.5 0-13.5 6-13.5 13.5v162.1c0 7.4 6.1 13.5 13.5 13.5zm13.5-162.1h135.1v135.1h-135.1zm221.7-102.843v-71.5c0-7.5-6-13.5-13.5-13.5s-13.5 6-13.5 13.5v104.1c0 7.5 6 13.5 13.5 13.5h104.1c7.5 0 13.5-6 13.5-13.5s-6-13.5-13.5-13.5h-71.5l128.8-128.8c5.3-5.3 5.3-13.8 0-19.1-2.6-2.6-6.1-4-9.5-4-3.4 0-6.9 1.3-9.5 4z"/>
    </g>
</svg>
